{"title":"Riddick 2013 CAM NEW SOURCE XviD-PsiX","uid":8973007,"size":1722710005,"categoryP":"video","categoryS":"movies","magnet":"?xt=urn:btih:375be97612a6f3389806e7fe305c597a8d779b13&amp;dn=Riddick+2013+CAM+NEW+SOURCE+XviD-PsiX&amp;tr=udp%3A%2F%2Ftracker.openbittorrent.com%3A80&amp;tr=udp%3A%2F%2Fopen.demonii.com%3A1337&amp;tr=udp%3A%2F%2Ftracker.coppersurfer.tk%3A6969&amp;tr=udp%3A%2F%2Fexodus.desync.com%3A6969","seeders":1,"leechers":0,"uploader":"sakhslitsa","files":3,"time":1380328845,"description":"Left for dead on a sun-scorched planet, Riddick finds himself up\nagainst an alien race of predators. Activating an emergency beacon\nalerts two ships: one carrying a new breed of mercenary, the other\ncaptained by a man from Riddick's past...\n\n\n\n\nDirector:\nDavid Twohy\nWriters:\nDavid Twohy, Jim Wheat\nStars:\nVin Diesel, Karl Urban, Katee Sackhoff \n\n\n\nFormat : AVI\nFormat/Info : Audio Video Interleave\nFile size : 1.59 GiB\nDuration : 1h 54mn\nOverall bit rate : 1 985 Kbps\n\nVideo\nID : 0\nFormat : MPEG-4 Visual\nFormat profile : Advanced Simple@L5\nFormat settings, BVOP : 2\nFormat settings, QPel : No\nFormat settings, GMC : No warppoints\nFormat settings, Matrix : Default (H.263)\nMuxing mode : Packed bitstream\nCodec ID : XVID\nCodec ID/Hint : XviD\nDuration : 1h 54mn\nBit rate : 1 785 Kbps\nWidth : 720 pixels\nHeight : 304 pixels\nDisplay aspect ratio : 2.35:1\nFrame rate : 29.970 fps\nColor space : YUV\nChroma subsampling : 4:2:0\nBit depth : 8 bits\nScan type : Progressive\nCompression mode : Lossy\nBits/(Pixel*Frame) : 0.272\nStream size : 1.43 GiB (90%)\nWriting library : XviD 1.2.1 (UTC 2008-12-04)\n\nAudio\nID : 1\nFormat : AC-3\nFormat/Info : Audio Coding 3\nMode extension : CM (complete main)\nFormat settings, Endianness : Big\nCodec ID : 2000\nDuration : 1h 54mn\nBit rate mode : Constant\nBit rate : 192 Kbps\nChannel(s) : 2 channels\nChannel positions : Front: L R\nSampling rate : 44.1 KHz\nBit depth : 16 bits\nCompression mode : Lossy\nStream size : 157 MiB (10%)\nAlignment : Aligned on interleaves\nInterleave, duration : 70 ms (2.09 video frames)\nInterleave, preload duration : 208 ms\n\n\n\nEncoded............ PsiX\nSource.............HiGH...(Thanks and respect)\nSample..............Yes\nSubs ............No\n","torrent":{"xt":"urn:btih:375be97612a6f3389806e7fe305c597a8d779b13","amp;dn":"Riddick+2013+CAM+NEW+SOURCE+XviD-PsiX","amp;tr":["udp%3A%2F%2Ftracker.openbittorrent.com%3A80","udp%3A%2F%2Fopen.demonii.com%3A1337","udp%3A%2F%2Ftracker.coppersurfer.tk%3A6969","udp%3A%2F%2Fexodus.desync.com%3A6969"],"infoHash":"375be97612a6f3389806e7fe305c597a8d779b13","infoHashBuffer":{"type":"Buffer","data":[55,91,233,118,18,166,243,56,152,6,231,254,48,92,89,122,141,119,155,19]},"announce":[],"urlList":[]}}